<mxfile host="app.diagrams.net" modified="2024-07-02T04:14:49.432Z" agent="Mozilla/5.0 (Macintosh; Intel Mac OS X 10_15_7) AppleWebKit/537.36 (KHTML, like Gecko) Chrome/125.0.0.0 Safari/537.36" etag="Q5rIytk8HtNkSeXxrCtW" version="24.6.3" type="device">
  <diagram name="Page-1" id="YBPNLHymaKYXu_r0LT9t">
    <mxGraphModel dx="1155" dy="703" grid="1" gridSize="10" guides="1" tooltips="1" connect="1" arrows="1" fold="1" page="1" pageScale="1" pageWidth="827" pageHeight="1169" math="0" shadow="0">
      <root>
        <mxCell id="0" />
        <mxCell id="1" parent="0" />
        <mxCell id="R5Q36gklIRTZVljyS70G-1" value="" style="image;aspect=fixed;html=1;points=[];align=center;fontSize=12;image=img/lib/azure2/general/Browser.svg;" vertex="1" parent="1">
          <mxGeometry x="220" y="120" width="137.5" height="110" as="geometry" />
        </mxCell>
        <mxCell id="R5Q36gklIRTZVljyS70G-2" value="" style="html=1;verticalLabelPosition=bottom;align=center;labelBackgroundColor=#ffffff;verticalAlign=top;strokeWidth=2;strokeColor=#0080F0;shadow=0;dashed=0;shape=mxgraph.ios7.icons.smartphone;" vertex="1" parent="1">
          <mxGeometry x="410" y="90" width="70" height="150" as="geometry" />
        </mxCell>
        <mxCell id="R5Q36gklIRTZVljyS70G-3" value="" style="rounded=0;whiteSpace=wrap;html=1;imageAspect=1;fillOpacity=0;fillColor=#fff2cc;strokeColor=#d6b656;" vertex="1" parent="1">
          <mxGeometry x="130" y="50" width="420" height="230" as="geometry" />
        </mxCell>
        <mxCell id="R5Q36gklIRTZVljyS70G-4" value="Browser" style="text;html=1;align=center;verticalAlign=middle;whiteSpace=wrap;rounded=0;" vertex="1" parent="1">
          <mxGeometry x="258.75" y="165" width="60" height="30" as="geometry" />
        </mxCell>
        <mxCell id="R5Q36gklIRTZVljyS70G-5" value="Mobile Device" style="text;html=1;align=center;verticalAlign=middle;whiteSpace=wrap;rounded=0;" vertex="1" parent="1">
          <mxGeometry x="384" y="150" width="126" height="30" as="geometry" />
        </mxCell>
        <mxCell id="R5Q36gklIRTZVljyS70G-7" value="User - Client Side" style="text;html=1;align=center;verticalAlign=middle;whiteSpace=wrap;rounded=0;fillColor=#d5e8d4;strokeColor=#82b366;" vertex="1" parent="1">
          <mxGeometry x="140" y="60" width="110" height="30" as="geometry" />
        </mxCell>
        <mxCell id="R5Q36gklIRTZVljyS70G-11" value="" style="image;aspect=fixed;perimeter=ellipsePerimeter;html=1;align=center;shadow=0;dashed=0;spacingTop=3;image=img/lib/active_directory/generic_server.svg;" vertex="1" parent="1">
          <mxGeometry x="341" y="750" width="72.8" height="130" as="geometry" />
        </mxCell>
        <mxCell id="R5Q36gklIRTZVljyS70G-12" value="" style="rounded=0;whiteSpace=wrap;html=1;fillOpacity=0;dashed=1;" vertex="1" parent="1">
          <mxGeometry x="100" y="740" width="430" height="150" as="geometry" />
        </mxCell>
        <mxCell id="R5Q36gklIRTZVljyS70G-14" value="Web Server - Server Side" style="text;html=1;align=center;verticalAlign=middle;whiteSpace=wrap;rounded=0;fillColor=#d5e8d4;strokeColor=#82b366;" vertex="1" parent="1">
          <mxGeometry x="160" y="950" width="211" height="30" as="geometry" />
        </mxCell>
        <mxCell id="R5Q36gklIRTZVljyS70G-15" value="" style="image;sketch=0;aspect=fixed;html=1;points=[];align=center;fontSize=12;image=img/lib/mscae/DNS.svg;" vertex="1" parent="1">
          <mxGeometry x="700" y="95" width="100" height="100" as="geometry" />
        </mxCell>
        <mxCell id="R5Q36gklIRTZVljyS70G-16" value="" style="endArrow=classic;html=1;rounded=0;exitX=1;exitY=0.296;exitDx=0;exitDy=0;exitPerimeter=0;entryX=0;entryY=0.231;entryDx=0;entryDy=0;entryPerimeter=0;" edge="1" parent="1" source="R5Q36gklIRTZVljyS70G-3" target="R5Q36gklIRTZVljyS70G-15">
          <mxGeometry width="50" height="50" relative="1" as="geometry">
            <mxPoint x="560" y="290" as="sourcePoint" />
            <mxPoint x="690" y="120" as="targetPoint" />
          </mxGeometry>
        </mxCell>
        <mxCell id="R5Q36gklIRTZVljyS70G-17" value="" style="endArrow=classic;html=1;rounded=0;entryX=1.004;entryY=0.48;entryDx=0;entryDy=0;entryPerimeter=0;exitX=-0.015;exitY=0.641;exitDx=0;exitDy=0;exitPerimeter=0;" edge="1" parent="1" source="R5Q36gklIRTZVljyS70G-15" target="R5Q36gklIRTZVljyS70G-3">
          <mxGeometry width="50" height="50" relative="1" as="geometry">
            <mxPoint x="687" y="160" as="sourcePoint" />
            <mxPoint x="550" y="163.02999999999994" as="targetPoint" />
          </mxGeometry>
        </mxCell>
        <mxCell id="R5Q36gklIRTZVljyS70G-20" value="api.yoursite.com" style="text;html=1;align=center;verticalAlign=middle;whiteSpace=wrap;rounded=0;" vertex="1" parent="1">
          <mxGeometry x="580" y="90" width="100" height="30" as="geometry" />
        </mxCell>
        <mxCell id="R5Q36gklIRTZVljyS70G-21" value="IP Address&lt;div&gt;Returned&lt;/div&gt;&lt;div&gt;10.123.23.214&lt;/div&gt;" style="text;html=1;align=center;verticalAlign=middle;whiteSpace=wrap;rounded=0;" vertex="1" parent="1">
          <mxGeometry x="570" y="200" width="190" height="40" as="geometry" />
        </mxCell>
        <mxCell id="R5Q36gklIRTZVljyS70G-23" value="www.yoursite.com&lt;div&gt;&lt;br&gt;&lt;/div&gt;&lt;div&gt;10.123.23.214&lt;br&gt;&lt;/div&gt;" style="text;html=1;align=center;verticalAlign=middle;whiteSpace=wrap;rounded=0;" vertex="1" parent="1">
          <mxGeometry x="120" y="310" width="100" height="50" as="geometry" />
        </mxCell>
        <mxCell id="R5Q36gklIRTZVljyS70G-39" value="" style="outlineConnect=0;dashed=0;verticalLabelPosition=bottom;verticalAlign=top;align=center;html=1;shape=mxgraph.aws3.classic_load_balancer;fillColor=#F58534;gradientColor=none;rotation=90;" vertex="1" parent="1">
          <mxGeometry x="230" y="420" width="180" height="200" as="geometry" />
        </mxCell>
        <mxCell id="R5Q36gklIRTZVljyS70G-40" value="" style="shape=flexArrow;endArrow=classic;html=1;rounded=0;strokeColor=#000000;fillColor=#000000;" edge="1" parent="1">
          <mxGeometry width="50" height="50" relative="1" as="geometry">
            <mxPoint x="320.47" y="290" as="sourcePoint" />
            <mxPoint x="320" y="410" as="targetPoint" />
          </mxGeometry>
        </mxCell>
        <mxCell id="R5Q36gklIRTZVljyS70G-42" value="" style="image;aspect=fixed;perimeter=ellipsePerimeter;html=1;align=center;shadow=0;dashed=0;spacingTop=3;image=img/lib/active_directory/generic_server.svg;" vertex="1" parent="1">
          <mxGeometry x="200" y="750" width="72.8" height="130" as="geometry" />
        </mxCell>
        <mxCell id="R5Q36gklIRTZVljyS70G-43" value="" style="shape=flexArrow;endArrow=classic;html=1;rounded=0;strokeColor=default;fillColor=#000000;" edge="1" parent="1">
          <mxGeometry width="50" height="50" relative="1" as="geometry">
            <mxPoint x="310" y="630" as="sourcePoint" />
            <mxPoint x="240" y="720" as="targetPoint" />
          </mxGeometry>
        </mxCell>
        <mxCell id="R5Q36gklIRTZVljyS70G-44" value="" style="shape=flexArrow;endArrow=classic;html=1;rounded=0;fillColor=#000000;" edge="1" parent="1">
          <mxGeometry width="50" height="50" relative="1" as="geometry">
            <mxPoint x="318.75" y="630" as="sourcePoint" />
            <mxPoint x="380" y="720" as="targetPoint" />
          </mxGeometry>
        </mxCell>
        <mxCell id="R5Q36gklIRTZVljyS70G-45" value="&lt;font style=&quot;font-size: 18px;&quot;&gt;Server 1&lt;/font&gt;" style="text;html=1;align=center;verticalAlign=middle;whiteSpace=wrap;rounded=0;" vertex="1" parent="1">
          <mxGeometry x="154.5" y="900" width="105.5" height="30" as="geometry" />
        </mxCell>
        <mxCell id="R5Q36gklIRTZVljyS70G-46" value="&lt;font style=&quot;font-size: 18px;&quot;&gt;Server 2&lt;/font&gt;" style="text;html=1;align=center;verticalAlign=middle;whiteSpace=wrap;rounded=0;" vertex="1" parent="1">
          <mxGeometry x="341" y="900" width="122.6" height="30" as="geometry" />
        </mxCell>
        <mxCell id="R5Q36gklIRTZVljyS70G-47" value="&lt;font style=&quot;font-size: 18px;&quot;&gt;Public IP:&amp;nbsp; 10.101.11.1&lt;/font&gt;" style="text;html=1;align=center;verticalAlign=middle;whiteSpace=wrap;rounded=0;" vertex="1" parent="1">
          <mxGeometry x="384" y="360" width="246" height="30" as="geometry" />
        </mxCell>
        <mxCell id="R5Q36gklIRTZVljyS70G-48" value="&lt;font style=&quot;font-size: 18px;&quot;&gt;Private IP:&amp;nbsp; 10.0.0.1&lt;/font&gt;" style="text;html=1;align=center;verticalAlign=middle;whiteSpace=wrap;rounded=0;" vertex="1" parent="1">
          <mxGeometry x="47" y="630" width="246" height="30" as="geometry" />
        </mxCell>
        <mxCell id="R5Q36gklIRTZVljyS70G-49" value="&lt;font style=&quot;font-size: 18px;&quot;&gt;Private IP:&amp;nbsp; 10.0.0.2&lt;/font&gt;" style="text;html=1;align=center;verticalAlign=middle;whiteSpace=wrap;rounded=0;" vertex="1" parent="1">
          <mxGeometry x="370" y="630" width="246" height="30" as="geometry" />
        </mxCell>
        <mxCell id="R5Q36gklIRTZVljyS70G-50" value="" style="rounded=0;whiteSpace=wrap;html=1;fillOpacity=0;" vertex="1" parent="1">
          <mxGeometry x="40" y="20" width="810" height="1010" as="geometry" />
        </mxCell>
      </root>
    </mxGraphModel>
  </diagram>
</mxfile>
